<svg width="216" height="200" viewBox="0 0 216 200" fill="none" xmlns="http://www.w3.org/2000/svg">
<path d="M13.0389 19.9929L-15.1962 -5.32392C-15.7877 -5.85435 -16.7229 -5.78332 -17.2022 -5.13954C-22.9205 2.48521 -21.3687 13.9141 -13.3916 21.0668C-5.41454 28.2194 6.11298 28.5227 13.0735 22.0071C13.6588 21.4583 13.6304 20.5233 13.0389 19.9929Z" fill="#FF6633"/>
<path d="M159.221 192.796L187.456 218.113C188.047 218.643 188.983 218.572 189.462 217.928C195.18 210.304 193.629 198.875 185.651 191.722C177.674 184.569 166.147 184.266 159.186 190.782C158.601 191.33 158.629 192.265 159.221 192.796Z" fill="#FF6633"/>
<path d="M191.079 69.1119L161.715 45.1138C161.1 44.611 160.169 44.7247 159.719 45.3898C154.356 53.2682 156.429 64.6141 164.725 71.3942C173.021 78.1743 184.551 77.9497 191.206 71.1224C191.765 70.5474 191.694 69.6147 191.079 69.1119Z" fill="#FF6633"/>
<path d="M0.59666 152.597L27.3053 125.675C27.8648 125.111 27.8411 124.173 27.2223 123.662C19.8956 117.567 8.40297 118.54 0.857124 126.146C-6.68872 133.753 -7.57297 145.25 -1.41676 152.53C-0.898169 153.143 0.0370759 153.161 0.59666 152.597Z" fill="#FF6633"/>
<path d="M-5.08468 91.3229C-10.6525 91.9142 -16.1277 83.3391 -17.3139 72.1699C-18.5001 61.0007 -14.9481 51.4669 -9.38029 50.8756C-3.81245 50.2843 1.66278 58.8594 2.84898 70.0286C4.03517 81.1978 0.483157 90.7316 -5.08468 91.3229Z" fill="#FCA21C"/>
<path d="M180.571 110.581C186.139 109.99 191.614 118.565 192.8 129.734C193.986 140.903 190.434 150.437 184.867 151.029C179.299 151.62 173.824 143.045 172.637 131.876C171.451 120.706 175.003 111.173 180.571 110.581Z" fill="#FCA21C"/>
<path d="M119.855 4.90633C123.476 7.509 121.097 17.0123 114.541 26.1326C107.985 35.2529 99.7353 40.5364 96.1145 37.9337C92.4938 35.3311 94.8732 25.8278 101.429 16.7075C107.985 7.58721 116.235 2.30366 119.855 4.90633Z" fill="#FCA21C"/>
<path d="M65.9774 159.895C61.5445 159.412 58.9367 149.969 60.1526 138.803C61.3685 127.637 65.9478 118.977 70.3807 119.459C74.8136 119.942 77.4215 129.385 76.2056 140.551C74.9896 151.717 70.4103 160.378 65.9774 159.895Z" fill="#FCA21C"/>
<path fill-rule="evenodd" clip-rule="evenodd" d="M68.3295 64.6266C70.1844 67.2202 69.5838 70.8213 66.9882 72.67C61.1432 76.833 53.2771 78.069 45.827 75.6484C38.3768 73.2277 32.7409 67.6034 30.4589 60.8016C29.4452 57.7804 31.0757 54.5139 34.1007 53.5056C37.1256 52.4972 40.3995 54.129 41.4131 57.1501C42.49 60.3598 45.2994 63.3519 49.3904 64.6812C53.4828 66.0108 57.5143 65.2415 60.2713 63.2779C62.8669 61.4292 66.4747 62.0331 68.3295 64.6266Z" fill="#70C05B"/>
<path fill-rule="evenodd" clip-rule="evenodd" d="M110.578 135.599C108.723 133.006 109.323 129.404 111.919 127.556C117.764 123.393 125.63 122.157 133.08 124.577C140.53 126.998 146.166 132.622 148.448 139.424C149.462 142.445 147.831 145.712 144.807 146.72C141.782 147.729 138.508 146.097 137.494 143.076C136.417 139.866 133.608 136.874 129.517 135.545C125.424 134.215 121.393 134.984 118.636 136.948C116.04 138.797 112.433 138.193 110.578 135.599Z" fill="#70C05B"/>
<path fill-rule="evenodd" clip-rule="evenodd" d="M168.272 -0.775622C167.762 -3.92318 169.9 -6.88277 173.047 -7.38604C180.133 -8.51935 187.729 -6.13255 193.329 -0.654418C198.928 4.8238 201.479 12.3663 200.502 19.4738C200.068 22.6308 197.156 24.8331 193.998 24.3928C190.84 23.9525 188.632 21.0363 189.066 17.8793C189.527 14.5254 188.339 10.5967 185.264 7.58847C182.189 4.57932 178.235 3.47773 174.893 4.01229C171.746 4.51556 168.782 2.37194 168.272 -0.775622Z" fill="#70C05B"/>
<path fill-rule="evenodd" clip-rule="evenodd" d="M78.699 200.053C80.9535 202.308 80.9507 205.959 78.6929 208.207C73.6084 213.271 66.0509 215.779 58.305 214.611C50.5589 213.443 44.0781 208.817 40.7132 202.481C39.2185 199.666 40.2921 196.177 43.1111 194.687C45.9301 193.197 49.427 194.27 50.9216 197.085C52.5095 200.075 55.771 202.567 60.0245 203.208C64.2793 203.85 68.1304 202.431 70.5287 200.042C72.7866 197.793 76.4445 197.798 78.699 200.053Z" fill="#70C05B"/>
<path d="M44.7235 3.95803C43.2204 1.71704 43.8186 -1.31813 46.0596 -2.82121L69.797 -18.7424C72.0379 -20.2455 75.0731 -19.6473 76.5762 -17.4063L81.2709 -10.4068C82.774 -8.16586 82.1758 -5.13069 79.9348 -3.62761L56.1975 12.2936C53.9565 13.7967 50.9213 13.1985 49.4182 10.9575L44.7235 3.95803Z" fill="#1CB9FC"/>
<path d="M98.3576 177.491C97.782 174.854 99.4526 172.251 102.089 171.675L130.013 165.579C132.65 165.003 135.253 166.674 135.829 169.31L137.627 177.544C138.202 180.18 136.532 182.784 133.895 183.36L105.971 189.456C103.335 190.032 100.731 188.361 100.155 185.725L98.3576 177.491Z" fill="#1CB9FC"/>
<path d="M126.497 99.1414C124.483 100.938 121.394 100.761 119.598 98.7476L100.572 77.4178C98.7761 75.4041 98.9525 72.3156 100.966 70.5194L107.256 64.9092C109.269 63.113 112.358 63.2893 114.154 65.303L133.18 86.6328C134.976 88.6465 134.8 91.735 132.786 93.5312L126.497 99.1414Z" fill="#1CB9FC"/>
<path d="M-6.34081 173.558C-3.68133 173.101 -1.1553 174.887 -0.698773 177.547L4.13694 205.717C4.59347 208.376 2.80762 210.902 0.148131 211.359L-8.15848 212.785C-10.818 213.241 -13.344 211.455 -13.8005 208.796L-18.6362 180.626C-19.0928 177.966 -17.3069 175.44 -14.6474 174.984L-6.34081 173.558Z" fill="#1CB9FC"/>
</svg>
